<mxfile host="app.diagrams.net" modified="2022-02-27T15:40:35.060Z" agent="5.0 (Windows NT 10.0; Win64; x64) AppleWebKit/537.36 (KHTML, like Gecko) Chrome/98.0.4758.102 Safari/537.36" etag="zkcNMPEdioVafC4oxLeg" version="16.6.4" type="github">
  <diagram id="C5RBs43oDa-KdzZeNtuy" name="Page-1">
    <mxGraphModel dx="2702" dy="803" grid="1" gridSize="10" guides="1" tooltips="1" connect="1" arrows="1" fold="1" page="1" pageScale="1" pageWidth="827" pageHeight="1169" math="0" shadow="0">
      <root>
        <mxCell id="WIyWlLk6GJQsqaUBKTNV-0" />
        <mxCell id="WIyWlLk6GJQsqaUBKTNV-1" parent="WIyWlLk6GJQsqaUBKTNV-0" />
        <mxCell id="OXYkQmJ8rUCcS9eOt5Q5-0" value="" style="rounded=0;html=1;jettySize=auto;orthogonalLoop=1;fontSize=11;endArrow=block;endFill=0;endSize=8;strokeWidth=1;shadow=0;labelBackgroundColor=none;edgeStyle=orthogonalEdgeStyle;entryX=0.5;entryY=0;entryDx=0;entryDy=0;" edge="1" parent="WIyWlLk6GJQsqaUBKTNV-1" source="OXYkQmJ8rUCcS9eOt5Q5-1" target="OXYkQmJ8rUCcS9eOt5Q5-2">
          <mxGeometry relative="1" as="geometry">
            <mxPoint x="220" y="170" as="targetPoint" />
            <Array as="points" />
          </mxGeometry>
        </mxCell>
        <mxCell id="OXYkQmJ8rUCcS9eOt5Q5-1" value="Inicio" style="rounded=1;whiteSpace=wrap;html=1;fontSize=12;glass=0;strokeWidth=1;shadow=0;" vertex="1" parent="WIyWlLk6GJQsqaUBKTNV-1">
          <mxGeometry x="530" width="120" height="40" as="geometry" />
        </mxCell>
        <mxCell id="OXYkQmJ8rUCcS9eOt5Q5-2" value="Escribir menú en pantalla" style="shape=parallelogram;perimeter=parallelogramPerimeter;whiteSpace=wrap;html=1;fixedSize=1;" vertex="1" parent="WIyWlLk6GJQsqaUBKTNV-1">
          <mxGeometry x="530" y="120" width="120" height="60" as="geometry" />
        </mxCell>
        <mxCell id="OXYkQmJ8rUCcS9eOt5Q5-5" value="" style="rounded=0;html=1;jettySize=auto;orthogonalLoop=1;fontSize=11;endArrow=block;endFill=0;endSize=8;strokeWidth=1;shadow=0;labelBackgroundColor=none;edgeStyle=orthogonalEdgeStyle;" edge="1" parent="WIyWlLk6GJQsqaUBKTNV-1" target="OXYkQmJ8rUCcS9eOt5Q5-6">
          <mxGeometry relative="1" as="geometry">
            <mxPoint x="610" y="450" as="sourcePoint" />
            <mxPoint x="130" y="340" as="targetPoint" />
            <Array as="points">
              <mxPoint x="430" y="450" />
              <mxPoint x="120" y="450" />
              <mxPoint x="120" y="560" />
              <mxPoint x="60" y="560" />
            </Array>
          </mxGeometry>
        </mxCell>
        <mxCell id="OXYkQmJ8rUCcS9eOt5Q5-6" value="Escribir cita 1 de la ciudad del miedo" style="shape=parallelogram;perimeter=parallelogramPerimeter;whiteSpace=wrap;html=1;fixedSize=1;" vertex="1" parent="WIyWlLk6GJQsqaUBKTNV-1">
          <mxGeometry x="-10" y="585" width="120" height="60" as="geometry" />
        </mxCell>
        <mxCell id="OXYkQmJ8rUCcS9eOt5Q5-7" value="Escribir cita 1 de James Bond" style="shape=parallelogram;perimeter=parallelogramPerimeter;whiteSpace=wrap;html=1;fixedSize=1;" vertex="1" parent="WIyWlLk6GJQsqaUBKTNV-1">
          <mxGeometry x="250" y="584.5" width="120" height="60" as="geometry" />
        </mxCell>
        <mxCell id="OXYkQmJ8rUCcS9eOt5Q5-8" value="Escribir cita 1 de Star Wars" style="shape=parallelogram;perimeter=parallelogramPerimeter;whiteSpace=wrap;html=1;fixedSize=1;" vertex="1" parent="WIyWlLk6GJQsqaUBKTNV-1">
          <mxGeometry x="740" y="585" width="120" height="60" as="geometry" />
        </mxCell>
        <mxCell id="OXYkQmJ8rUCcS9eOt5Q5-9" value="Fin" style="rounded=1;whiteSpace=wrap;html=1;" vertex="1" parent="WIyWlLk6GJQsqaUBKTNV-1">
          <mxGeometry x="1030" y="420" width="120" height="60" as="geometry" />
        </mxCell>
        <mxCell id="OXYkQmJ8rUCcS9eOt5Q5-11" value="" style="rounded=0;html=1;jettySize=auto;orthogonalLoop=1;fontSize=11;endArrow=block;endFill=0;endSize=8;strokeWidth=1;shadow=0;labelBackgroundColor=none;edgeStyle=orthogonalEdgeStyle;entryX=0.5;entryY=0;entryDx=0;entryDy=0;exitX=0.75;exitY=0;exitDx=0;exitDy=0;" edge="1" parent="WIyWlLk6GJQsqaUBKTNV-1" source="OXYkQmJ8rUCcS9eOt5Q5-21" target="OXYkQmJ8rUCcS9eOt5Q5-8">
          <mxGeometry relative="1" as="geometry">
            <mxPoint x="380" y="410" as="sourcePoint" />
            <mxPoint x="380" y="340" as="targetPoint" />
            <Array as="points">
              <mxPoint x="860" y="450" />
              <mxPoint x="860" y="540" />
              <mxPoint x="800" y="540" />
            </Array>
          </mxGeometry>
        </mxCell>
        <mxCell id="OXYkQmJ8rUCcS9eOt5Q5-16" value="Escribir cita 1 de la vida es una largo río tranquilo" style="shape=parallelogram;perimeter=parallelogramPerimeter;whiteSpace=wrap;html=1;fixedSize=1;" vertex="1" parent="WIyWlLk6GJQsqaUBKTNV-1">
          <mxGeometry x="490" y="585" width="120" height="60" as="geometry" />
        </mxCell>
        <mxCell id="OXYkQmJ8rUCcS9eOt5Q5-19" value="opcion 1" style="text;html=1;strokeColor=none;fillColor=none;align=center;verticalAlign=middle;whiteSpace=wrap;rounded=0;" vertex="1" parent="WIyWlLk6GJQsqaUBKTNV-1">
          <mxGeometry x="120" y="450" width="60" height="30" as="geometry" />
        </mxCell>
        <mxCell id="OXYkQmJ8rUCcS9eOt5Q5-20" value="opcion 2" style="text;html=1;strokeColor=none;fillColor=none;align=center;verticalAlign=middle;whiteSpace=wrap;rounded=0;" vertex="1" parent="WIyWlLk6GJQsqaUBKTNV-1">
          <mxGeometry x="240" y="450" width="60" height="30" as="geometry" />
        </mxCell>
        <mxCell id="OXYkQmJ8rUCcS9eOt5Q5-21" value="opcion 3" style="text;html=1;strokeColor=none;fillColor=none;align=center;verticalAlign=middle;whiteSpace=wrap;rounded=0;" vertex="1" parent="WIyWlLk6GJQsqaUBKTNV-1">
          <mxGeometry x="540" y="450" width="60" height="30" as="geometry" />
        </mxCell>
        <mxCell id="OXYkQmJ8rUCcS9eOt5Q5-22" value="opcion 4" style="text;html=1;strokeColor=none;fillColor=none;align=center;verticalAlign=middle;whiteSpace=wrap;rounded=0;" vertex="1" parent="WIyWlLk6GJQsqaUBKTNV-1">
          <mxGeometry x="650" y="450" width="60" height="30" as="geometry" />
        </mxCell>
        <mxCell id="OXYkQmJ8rUCcS9eOt5Q5-23" value="opcion 5" style="text;html=1;strokeColor=none;fillColor=none;align=center;verticalAlign=middle;whiteSpace=wrap;rounded=0;" vertex="1" parent="WIyWlLk6GJQsqaUBKTNV-1">
          <mxGeometry x="970" y="420" width="60" height="30" as="geometry" />
        </mxCell>
        <mxCell id="OXYkQmJ8rUCcS9eOt5Q5-25" value="Generar número aleatorio y guardarlo en la variable cita" style="rounded=0;whiteSpace=wrap;html=1;" vertex="1" parent="WIyWlLk6GJQsqaUBKTNV-1">
          <mxGeometry x="520" y="340" width="120" height="60" as="geometry" />
        </mxCell>
        <mxCell id="OXYkQmJ8rUCcS9eOt5Q5-26" value="" style="rounded=0;html=1;jettySize=auto;orthogonalLoop=1;fontSize=11;endArrow=block;endFill=0;endSize=8;strokeWidth=1;shadow=0;labelBackgroundColor=none;edgeStyle=orthogonalEdgeStyle;entryX=0.5;entryY=0;entryDx=0;entryDy=0;" edge="1" parent="WIyWlLk6GJQsqaUBKTNV-1" target="OXYkQmJ8rUCcS9eOt5Q5-31">
          <mxGeometry relative="1" as="geometry">
            <mxPoint x="380" y="410" as="targetPoint" />
            <Array as="points">
              <mxPoint x="120" y="560" />
              <mxPoint x="180" y="560" />
            </Array>
            <mxPoint x="120" y="510" as="sourcePoint" />
          </mxGeometry>
        </mxCell>
        <mxCell id="OXYkQmJ8rUCcS9eOt5Q5-3" value="Almacenar el valor introducido en la variable opción" style="shape=parallelogram;perimeter=parallelogramPerimeter;whiteSpace=wrap;html=1;fixedSize=1;" vertex="1" parent="WIyWlLk6GJQsqaUBKTNV-1">
          <mxGeometry x="515" y="240" width="130" height="50" as="geometry" />
        </mxCell>
        <mxCell id="OXYkQmJ8rUCcS9eOt5Q5-28" value="" style="rounded=0;html=1;jettySize=auto;orthogonalLoop=1;fontSize=11;endArrow=block;endFill=0;endSize=8;strokeWidth=1;shadow=0;labelBackgroundColor=none;edgeStyle=orthogonalEdgeStyle;entryX=0.573;entryY=-0.026;entryDx=0;entryDy=0;entryPerimeter=0;exitX=0.5;exitY=1;exitDx=0;exitDy=0;" edge="1" parent="WIyWlLk6GJQsqaUBKTNV-1" source="OXYkQmJ8rUCcS9eOt5Q5-2" target="OXYkQmJ8rUCcS9eOt5Q5-3">
          <mxGeometry relative="1" as="geometry">
            <mxPoint x="400" y="190" as="targetPoint" />
            <Array as="points" />
            <mxPoint x="400" y="140" as="sourcePoint" />
          </mxGeometry>
        </mxCell>
        <mxCell id="OXYkQmJ8rUCcS9eOt5Q5-29" value="" style="rounded=0;html=1;jettySize=auto;orthogonalLoop=1;fontSize=11;endArrow=block;endFill=0;endSize=8;strokeWidth=1;shadow=0;labelBackgroundColor=none;edgeStyle=orthogonalEdgeStyle;entryX=0.5;entryY=0;entryDx=0;entryDy=0;exitX=0.5;exitY=1;exitDx=0;exitDy=0;" edge="1" parent="WIyWlLk6GJQsqaUBKTNV-1" source="OXYkQmJ8rUCcS9eOt5Q5-3" target="OXYkQmJ8rUCcS9eOt5Q5-25">
          <mxGeometry relative="1" as="geometry">
            <mxPoint x="410" y="200" as="targetPoint" />
            <Array as="points" />
            <mxPoint x="380" y="310" as="sourcePoint" />
          </mxGeometry>
        </mxCell>
        <mxCell id="OXYkQmJ8rUCcS9eOt5Q5-31" value="Escribir cita 2 de la ciudad del miedo" style="shape=parallelogram;perimeter=parallelogramPerimeter;whiteSpace=wrap;html=1;fixedSize=1;" vertex="1" parent="WIyWlLk6GJQsqaUBKTNV-1">
          <mxGeometry x="120" y="585" width="120" height="60" as="geometry" />
        </mxCell>
        <mxCell id="OXYkQmJ8rUCcS9eOt5Q5-33" value="" style="rounded=0;html=1;jettySize=auto;orthogonalLoop=1;fontSize=11;endArrow=block;endFill=0;endSize=8;strokeWidth=1;shadow=0;labelBackgroundColor=none;edgeStyle=orthogonalEdgeStyle;exitX=0.5;exitY=1;exitDx=0;exitDy=0;entryX=0.5;entryY=0;entryDx=0;entryDy=0;" edge="1" parent="WIyWlLk6GJQsqaUBKTNV-1" source="OXYkQmJ8rUCcS9eOt5Q5-25" target="OXYkQmJ8rUCcS9eOt5Q5-16">
          <mxGeometry relative="1" as="geometry">
            <mxPoint x="480" y="500" as="targetPoint" />
            <Array as="points">
              <mxPoint x="580" y="540" />
              <mxPoint x="550" y="540" />
            </Array>
            <mxPoint x="780" y="280" as="sourcePoint" />
          </mxGeometry>
        </mxCell>
        <mxCell id="OXYkQmJ8rUCcS9eOt5Q5-34" value="cita = 1" style="text;html=1;strokeColor=none;fillColor=none;align=center;verticalAlign=middle;whiteSpace=wrap;rounded=0;" vertex="1" parent="WIyWlLk6GJQsqaUBKTNV-1">
          <mxGeometry x="40" y="530" width="60" height="30" as="geometry" />
        </mxCell>
        <mxCell id="OXYkQmJ8rUCcS9eOt5Q5-35" value="cita = 2" style="text;html=1;strokeColor=none;fillColor=none;align=center;verticalAlign=middle;whiteSpace=wrap;rounded=0;" vertex="1" parent="WIyWlLk6GJQsqaUBKTNV-1">
          <mxGeometry x="120" y="530" width="60" height="30" as="geometry" />
        </mxCell>
        <mxCell id="OXYkQmJ8rUCcS9eOt5Q5-36" value="&lt;span&gt;Escribir cita 2 de la vida es una largo río tranquilo&lt;/span&gt;" style="shape=parallelogram;perimeter=parallelogramPerimeter;whiteSpace=wrap;html=1;fixedSize=1;" vertex="1" parent="WIyWlLk6GJQsqaUBKTNV-1">
          <mxGeometry x="610" y="585" width="120" height="60" as="geometry" />
        </mxCell>
        <mxCell id="OXYkQmJ8rUCcS9eOt5Q5-37" value="Escribir cita 2 de James Bond" style="shape=parallelogram;perimeter=parallelogramPerimeter;whiteSpace=wrap;html=1;fixedSize=1;" vertex="1" parent="WIyWlLk6GJQsqaUBKTNV-1">
          <mxGeometry x="370" y="585" width="120" height="60" as="geometry" />
        </mxCell>
        <mxCell id="OXYkQmJ8rUCcS9eOt5Q5-38" value="cita = 1" style="text;html=1;strokeColor=none;fillColor=none;align=center;verticalAlign=middle;whiteSpace=wrap;rounded=0;" vertex="1" parent="WIyWlLk6GJQsqaUBKTNV-1">
          <mxGeometry x="310" y="515" width="60" height="30" as="geometry" />
        </mxCell>
        <mxCell id="OXYkQmJ8rUCcS9eOt5Q5-39" value="cita = 2" style="text;html=1;strokeColor=none;fillColor=none;align=center;verticalAlign=middle;whiteSpace=wrap;rounded=0;" vertex="1" parent="WIyWlLk6GJQsqaUBKTNV-1">
          <mxGeometry x="370" y="515" width="60" height="30" as="geometry" />
        </mxCell>
        <mxCell id="OXYkQmJ8rUCcS9eOt5Q5-40" value="" style="rounded=0;html=1;jettySize=auto;orthogonalLoop=1;fontSize=11;endArrow=block;endFill=0;endSize=8;strokeWidth=1;shadow=0;labelBackgroundColor=none;edgeStyle=orthogonalEdgeStyle;entryX=0.5;entryY=0;entryDx=0;entryDy=0;" edge="1" parent="WIyWlLk6GJQsqaUBKTNV-1" target="OXYkQmJ8rUCcS9eOt5Q5-37">
          <mxGeometry relative="1" as="geometry">
            <mxPoint x="409" y="390" as="targetPoint" />
            <Array as="points">
              <mxPoint x="370" y="450" />
              <mxPoint x="370" y="540" />
              <mxPoint x="430" y="540" />
            </Array>
            <mxPoint x="390" y="450" as="sourcePoint" />
          </mxGeometry>
        </mxCell>
        <mxCell id="OXYkQmJ8rUCcS9eOt5Q5-41" value="Escribir cita 2 de Star Wars" style="shape=parallelogram;perimeter=parallelogramPerimeter;whiteSpace=wrap;html=1;fixedSize=1;" vertex="1" parent="WIyWlLk6GJQsqaUBKTNV-1">
          <mxGeometry x="850" y="585" width="140" height="65" as="geometry" />
        </mxCell>
        <mxCell id="OXYkQmJ8rUCcS9eOt5Q5-42" value="" style="rounded=0;html=1;jettySize=auto;orthogonalLoop=1;fontSize=11;endArrow=block;endFill=0;endSize=8;strokeWidth=1;shadow=0;labelBackgroundColor=none;edgeStyle=orthogonalEdgeStyle;entryX=0.5;entryY=0;entryDx=0;entryDy=0;" edge="1" parent="WIyWlLk6GJQsqaUBKTNV-1" target="OXYkQmJ8rUCcS9eOt5Q5-36">
          <mxGeometry relative="1" as="geometry">
            <mxPoint x="755" y="560" as="targetPoint" />
            <Array as="points" />
            <mxPoint x="580" y="540" as="sourcePoint" />
          </mxGeometry>
        </mxCell>
        <mxCell id="OXYkQmJ8rUCcS9eOt5Q5-43" value="" style="rounded=0;html=1;jettySize=auto;orthogonalLoop=1;fontSize=11;endArrow=block;endFill=0;endSize=8;strokeWidth=1;shadow=0;labelBackgroundColor=none;edgeStyle=orthogonalEdgeStyle;entryX=0.5;entryY=0;entryDx=0;entryDy=0;" edge="1" parent="WIyWlLk6GJQsqaUBKTNV-1" target="OXYkQmJ8rUCcS9eOt5Q5-41">
          <mxGeometry relative="1" as="geometry">
            <mxPoint x="1055" y="570" as="targetPoint" />
            <Array as="points">
              <mxPoint x="920" y="540" />
            </Array>
            <mxPoint x="830" y="540" as="sourcePoint" />
          </mxGeometry>
        </mxCell>
        <mxCell id="OXYkQmJ8rUCcS9eOt5Q5-44" value="" style="rounded=0;html=1;jettySize=auto;orthogonalLoop=1;fontSize=11;endArrow=block;endFill=0;endSize=8;strokeWidth=1;shadow=0;labelBackgroundColor=none;edgeStyle=orthogonalEdgeStyle;entryX=0.5;entryY=0;entryDx=0;entryDy=0;" edge="1" parent="WIyWlLk6GJQsqaUBKTNV-1" target="OXYkQmJ8rUCcS9eOt5Q5-7">
          <mxGeometry relative="1" as="geometry">
            <mxPoint x="335" y="360" as="targetPoint" />
            <Array as="points" />
            <mxPoint x="390" y="540" as="sourcePoint" />
          </mxGeometry>
        </mxCell>
        <mxCell id="OXYkQmJ8rUCcS9eOt5Q5-45" value="" style="rounded=0;html=1;jettySize=auto;orthogonalLoop=1;fontSize=11;endArrow=block;endFill=0;endSize=8;strokeWidth=1;shadow=0;labelBackgroundColor=none;edgeStyle=orthogonalEdgeStyle;entryX=1;entryY=1;entryDx=0;entryDy=0;" edge="1" parent="WIyWlLk6GJQsqaUBKTNV-1" target="OXYkQmJ8rUCcS9eOt5Q5-23">
          <mxGeometry relative="1" as="geometry">
            <mxPoint x="995" y="370" as="targetPoint" />
            <Array as="points">
              <mxPoint x="960" y="450" />
              <mxPoint x="960" y="450" />
            </Array>
            <mxPoint x="800" y="450" as="sourcePoint" />
          </mxGeometry>
        </mxCell>
        <mxCell id="OXYkQmJ8rUCcS9eOt5Q5-47" value="cita = 1" style="text;html=1;strokeColor=none;fillColor=none;align=center;verticalAlign=middle;whiteSpace=wrap;rounded=0;" vertex="1" parent="WIyWlLk6GJQsqaUBKTNV-1">
          <mxGeometry x="520" y="515" width="60" height="30" as="geometry" />
        </mxCell>
        <mxCell id="OXYkQmJ8rUCcS9eOt5Q5-48" value="cita = 2" style="text;html=1;strokeColor=none;fillColor=none;align=center;verticalAlign=middle;whiteSpace=wrap;rounded=0;" vertex="1" parent="WIyWlLk6GJQsqaUBKTNV-1">
          <mxGeometry x="585" y="515" width="60" height="30" as="geometry" />
        </mxCell>
        <mxCell id="OXYkQmJ8rUCcS9eOt5Q5-49" value="cita = 2" style="text;html=1;strokeColor=none;fillColor=none;align=center;verticalAlign=middle;whiteSpace=wrap;rounded=0;" vertex="1" parent="WIyWlLk6GJQsqaUBKTNV-1">
          <mxGeometry x="860" y="515" width="60" height="30" as="geometry" />
        </mxCell>
        <mxCell id="OXYkQmJ8rUCcS9eOt5Q5-50" value="cita = 1" style="text;html=1;strokeColor=none;fillColor=none;align=center;verticalAlign=middle;whiteSpace=wrap;rounded=0;" vertex="1" parent="WIyWlLk6GJQsqaUBKTNV-1">
          <mxGeometry x="800" y="515" width="60" height="30" as="geometry" />
        </mxCell>
        <mxCell id="OXYkQmJ8rUCcS9eOt5Q5-51" value="" style="rounded=0;html=1;jettySize=auto;orthogonalLoop=1;fontSize=11;endArrow=block;endFill=0;endSize=8;strokeWidth=1;shadow=0;labelBackgroundColor=none;edgeStyle=orthogonalEdgeStyle;entryX=0;entryY=0.5;entryDx=0;entryDy=0;exitX=0.5;exitY=1;exitDx=0;exitDy=0;" edge="1" parent="WIyWlLk6GJQsqaUBKTNV-1" source="OXYkQmJ8rUCcS9eOt5Q5-6" target="OXYkQmJ8rUCcS9eOt5Q5-2">
          <mxGeometry relative="1" as="geometry">
            <mxPoint x="300" y="200" as="targetPoint" />
            <Array as="points">
              <mxPoint x="50" y="700" />
              <mxPoint x="-80" y="700" />
              <mxPoint x="-80" y="150" />
            </Array>
            <mxPoint x="30" y="720" as="sourcePoint" />
          </mxGeometry>
        </mxCell>
        <mxCell id="OXYkQmJ8rUCcS9eOt5Q5-61" value="" style="endArrow=none;html=1;rounded=0;entryX=0.5;entryY=1;entryDx=0;entryDy=0;" edge="1" parent="WIyWlLk6GJQsqaUBKTNV-1" target="OXYkQmJ8rUCcS9eOt5Q5-41">
          <mxGeometry width="50" height="50" relative="1" as="geometry">
            <mxPoint x="180" y="700" as="sourcePoint" />
            <mxPoint x="890" y="700" as="targetPoint" />
            <Array as="points">
              <mxPoint x="920" y="700" />
            </Array>
          </mxGeometry>
        </mxCell>
        <mxCell id="OXYkQmJ8rUCcS9eOt5Q5-62" value="" style="endArrow=none;html=1;rounded=0;entryX=0.5;entryY=1;entryDx=0;entryDy=0;" edge="1" parent="WIyWlLk6GJQsqaUBKTNV-1" target="OXYkQmJ8rUCcS9eOt5Q5-7">
          <mxGeometry width="50" height="50" relative="1" as="geometry">
            <mxPoint x="310" y="700" as="sourcePoint" />
            <mxPoint x="290" y="740" as="targetPoint" />
          </mxGeometry>
        </mxCell>
        <mxCell id="OXYkQmJ8rUCcS9eOt5Q5-63" value="" style="endArrow=none;html=1;rounded=0;entryX=0.5;entryY=1;entryDx=0;entryDy=0;" edge="1" parent="WIyWlLk6GJQsqaUBKTNV-1" target="OXYkQmJ8rUCcS9eOt5Q5-37">
          <mxGeometry width="50" height="50" relative="1" as="geometry">
            <mxPoint x="430" y="700" as="sourcePoint" />
            <mxPoint x="430" y="750" as="targetPoint" />
          </mxGeometry>
        </mxCell>
        <mxCell id="OXYkQmJ8rUCcS9eOt5Q5-64" value="" style="endArrow=none;html=1;rounded=0;exitX=0.5;exitY=1;exitDx=0;exitDy=0;" edge="1" parent="WIyWlLk6GJQsqaUBKTNV-1" source="OXYkQmJ8rUCcS9eOt5Q5-31">
          <mxGeometry width="50" height="50" relative="1" as="geometry">
            <mxPoint x="580" y="420" as="sourcePoint" />
            <mxPoint x="180" y="700" as="targetPoint" />
          </mxGeometry>
        </mxCell>
        <mxCell id="OXYkQmJ8rUCcS9eOt5Q5-65" value="" style="endArrow=none;html=1;rounded=0;" edge="1" parent="WIyWlLk6GJQsqaUBKTNV-1">
          <mxGeometry width="50" height="50" relative="1" as="geometry">
            <mxPoint x="50" y="700" as="sourcePoint" />
            <mxPoint x="180" y="700" as="targetPoint" />
          </mxGeometry>
        </mxCell>
        <mxCell id="OXYkQmJ8rUCcS9eOt5Q5-66" value="" style="endArrow=none;html=1;rounded=0;entryX=0.5;entryY=1;entryDx=0;entryDy=0;" edge="1" parent="WIyWlLk6GJQsqaUBKTNV-1" target="OXYkQmJ8rUCcS9eOt5Q5-16">
          <mxGeometry width="50" height="50" relative="1" as="geometry">
            <mxPoint x="550" y="700" as="sourcePoint" />
            <mxPoint x="630" y="390" as="targetPoint" />
            <Array as="points">
              <mxPoint x="550" y="660" />
            </Array>
          </mxGeometry>
        </mxCell>
        <mxCell id="OXYkQmJ8rUCcS9eOt5Q5-67" value="" style="endArrow=none;html=1;rounded=0;" edge="1" parent="WIyWlLk6GJQsqaUBKTNV-1">
          <mxGeometry width="50" height="50" relative="1" as="geometry">
            <mxPoint x="660" y="700" as="sourcePoint" />
            <mxPoint x="660" y="644.5" as="targetPoint" />
          </mxGeometry>
        </mxCell>
        <mxCell id="OXYkQmJ8rUCcS9eOt5Q5-68" value="" style="endArrow=none;html=1;rounded=0;" edge="1" parent="WIyWlLk6GJQsqaUBKTNV-1">
          <mxGeometry width="50" height="50" relative="1" as="geometry">
            <mxPoint x="780" y="700" as="sourcePoint" />
            <mxPoint x="780" y="644.5" as="targetPoint" />
          </mxGeometry>
        </mxCell>
      </root>
    </mxGraphModel>
  </diagram>
</mxfile>
